<svg width="138" height="37" viewBox="0 0 138 37" fill="none" xmlns="http://www.w3.org/2000/svg">
<g id="Logo">
<path d="M0 0H138V37H0V0Z" fill="white"/>
<path d="M28.1023 23.7358V11.9573H32.6398C36.0842 11.9573 38.6842 14.437 38.6842 17.8382C38.6842 21.2394 36.0842 23.7358 32.6729 23.7358H28.1023ZM32.6066 13.9846H30.3545V21.7085H32.6066C34.8422 21.7085 36.3658 20.1838 36.3658 17.8214C36.3658 15.4925 34.8257 13.9846 32.6066 13.9846Z" fill="#11151C"/>
<path d="M44.0673 23.9034C41.5668 23.9034 39.712 22.1274 39.712 19.6812C39.712 17.2853 41.5502 15.459 43.9183 15.459C46.2036 15.459 47.8596 17.168 47.8596 19.4969C47.8596 19.7817 47.8264 20.0833 47.7436 20.4519L41.898 20.4687C42.1629 21.474 42.9412 22.0604 44.0508 22.0604C44.8456 22.0604 45.5412 21.7755 46.0214 21.2226L47.2965 22.5128C46.5016 23.4343 45.359 23.9034 44.0673 23.9034ZM43.9183 17.2853C42.8916 17.302 42.1629 17.8717 41.898 18.8267H45.773C45.5577 17.8214 44.9284 17.2853 43.9183 17.2853Z" fill="#11151C"/>
<path d="M51.6717 23.7358L48.1444 15.6433H50.5291L52.4666 20.7535L54.4373 15.6433H56.7391L53.2284 23.7358H51.6717Z" fill="#11151C"/>
<path d="M61.3389 23.9034C58.8383 23.9034 56.9836 22.1274 56.9836 19.6812C56.9836 17.2853 58.8218 15.459 61.1898 15.459C63.4751 15.459 65.1311 17.168 65.1311 19.4969C65.1311 19.7817 65.098 20.0833 65.0152 20.4519L59.1695 20.4687C59.4345 21.474 60.2128 22.0604 61.3223 22.0604C62.1172 22.0604 62.8127 21.7755 63.293 21.2226L64.5681 22.5128C63.7732 23.4343 62.6306 23.9034 61.3389 23.9034ZM61.1898 17.2853C60.1631 17.302 59.4345 17.8717 59.1695 18.8267H63.0446C62.8293 17.8214 62.2 17.2853 61.1898 17.2853Z" fill="#11151C"/>
<path d="M66.4727 23.7358V11.6222H68.6421V23.7358H66.4727Z" fill="#11151C"/>
<path d="M74.3234 23.9034C71.9056 23.9034 70.0343 22.0604 70.0343 19.6645C70.0343 17.302 71.889 15.459 74.3068 15.459C76.7411 15.459 78.5958 17.2853 78.5958 19.6645C78.5958 22.0604 76.7411 23.9034 74.3234 23.9034ZM74.3068 21.8593C75.5322 21.8593 76.3768 20.9546 76.3768 19.6812C76.3768 18.4078 75.5157 17.5198 74.3068 17.5198C73.0979 17.5198 72.2534 18.4246 72.2534 19.6812C72.2534 20.9546 73.0979 21.8593 74.3068 21.8593Z" fill="#11151C"/>
<path d="M79.9924 27.1203V15.6433H82.1618V16.3638C82.7248 15.8109 83.5197 15.4758 84.4305 15.4758C86.6496 15.4758 88.3056 17.302 88.3056 19.698C88.3056 22.0939 86.6496 23.9034 84.4305 23.9034C83.5032 23.9034 82.7083 23.5851 82.1452 23.0322V27.1203H79.9924ZM84.0496 21.8761C85.242 21.8761 86.0865 20.9713 86.0865 19.6812C86.0865 18.4078 85.242 17.5031 84.0662 17.5031C82.8573 17.5031 82.0293 18.3911 82.0293 19.6812C82.0293 20.9713 82.8573 21.8761 84.0496 21.8761Z" fill="#11151C"/>
<path d="M93.5533 23.9034C91.0527 23.9034 89.198 22.1274 89.198 19.6812C89.198 17.2853 91.0361 15.459 93.4042 15.459C95.6895 15.459 97.3455 17.168 97.3455 19.4969C97.3455 19.7817 97.3124 20.0833 97.2296 20.4519L91.3839 20.4687C91.6489 21.474 92.4272 22.0604 93.5367 22.0604C94.3316 22.0604 95.0271 21.7755 95.5073 21.2226L96.7825 22.5128C95.9876 23.4343 94.8449 23.9034 93.5533 23.9034ZM93.4042 17.2853C92.3775 17.302 91.6489 17.8717 91.3839 18.8267H95.2589C95.0437 17.8214 94.4144 17.2853 93.4042 17.2853Z" fill="#11151C"/>
<path d="M98.6871 23.7358V15.6433H100.856V16.3638C101.337 15.7941 102.016 15.4758 102.926 15.4758C103.705 15.4758 104.318 15.7271 104.814 16.2968L103.456 17.8717C103.191 17.6036 102.877 17.4696 102.43 17.4696C101.486 17.4696 100.856 18.056 100.856 19.2623V23.7358H98.6871Z" fill="#11151C"/>
<path d="M104.004 24.5233L108.359 11.2033H110.313L105.958 24.5233H104.004Z" fill="#11151C"/>
</g>
</svg>
